<?xml version="1.0" standalone="no"?><!DOCTYPE svg PUBLIC "-//W3C//DTD SVG 1.1//EN" "http://www.w3.org/Graphics/SVG/1.1/DTD/svg11.dtd"><svg width="100%" height="100%" viewBox="0 0 242 138" version="1.1" xmlns="http://www.w3.org/2000/svg" xmlns:xlink="http://www.w3.org/1999/xlink" xml:space="preserve" style="fill-rule:evenodd;clip-rule:evenodd;stroke-linejoin:round;stroke-miterlimit:1.41421;"><path d="M195.046,49.076c0.103,0.04 0.203,0.087 0.297,0.14c0.2,0.119 0.375,0.275 0.538,0.45c0.175,0.119 0.346,0.235 0.515,0.36c0.263,0.14 0.469,0.334 0.638,0.565l0,-30.465l-28.785,0l0,1.987l26.797,0l0,26.963Z" style="fill:#aa3083;fill-rule:nonzero;"/><path d="M196.792,86.288c-0.031,0.034 -0.065,0.065 -0.097,0.097c-0.043,0.115 -0.093,0.225 -0.153,0.325c-0.315,0.54 -0.772,0.834 -1.315,1.065c0.106,-0.043 0.209,-0.087 0.312,-0.131c-0.162,0.075 -0.328,0.144 -0.494,0.216l0,27.156l-26.797,0l0,1.987l28.785,0l0,-31c-0.078,0.097 -0.156,0.194 -0.241,0.285" style="fill:#aa3083;fill-rule:nonzero;"/><path d="M195.126,49.243l19.241,19.241l-19.316,19.316c0,0.909 0.006,2.04 0,2.809l22.125,-22.125l-22.05,-22.356l0,3.115Z" style="fill:#000f8e;fill-rule:nonzero;"/><path d="M148.59,0l-19.253,18.991l0,3.059l0.012,0l19.241,-19.241l19.315,19.316c0.91,0 2.041,-0.006 2.81,0l-22.125,-22.125Z" style="fill:#000f8e;fill-rule:nonzero;"/><path d="M148.963,137.141l-19.254,-18.99l0,-3.06l0.013,0l19.241,19.241l19.315,-19.316c0.91,0 2.041,0.006 2.81,0l-22.125,22.125Z" style="fill:#000f8e;fill-rule:nonzero;"/><path d="M91.234,42.091c-5.934,5.818 -8.9,11.734 -8.9,17.753c0,2.425 0.713,5.434 2.141,9.028c-15.922,9.937 -32.613,17.475 -50.075,22.612c-9.844,2.897 -19.778,4.963 -29.8,6.225c-1.272,1.763 -2.834,3.325 -4.6,4.672c9.847,-1.406 19.831,-3.597 29.95,-6.584c19.153,-5.65 37.666,-13.778 55.537,-24.385c0.304,0.666 0.491,1.032 0.566,1.097l3.491,6.735c3.903,7.644 5.859,13.309 5.859,17.003c0,2.228 -1.312,4.469 -3.944,6.731l2.819,0.897l2.478,-1.394l25.01,-13.665l24.556,-13.513c6.912,-3.79 12.016,-6.615 15.325,-8.478l4.053,-2.244c-4.206,7.678 -7.903,15.569 -11.097,23.663c-3.191,8.093 -4.787,13.637 -4.787,16.631c4.806,-0.966 10.365,-1.978 16.671,-3.044c8.263,-1.397 14.044,-2.393 17.354,-2.99l-2.028,-1.547c-4.585,0.931 -8.076,1.394 -10.482,1.394c-3.453,0 -5.181,-0.844 -5.181,-2.541c0,-2.128 1.728,-7.381 5.181,-15.759c3.453,-8.375 6.347,-14.31 8.678,-17.8c4.053,-6.085 9.782,-10.972 17.178,-14.663c7.397,-3.688 15.191,-5.534 23.379,-5.534c6.231,0 9.346,0.862 9.346,2.593c0,0.566 -0.262,1.263 -0.787,2.094l-0.562,0.947l4.168,0.3l8.9,-13.116c-8.265,0 -16.559,1.032 -24.897,3.094c-6.309,1.563 -12.225,3.581 -17.743,6.056c-5.522,2.479 -14.516,7.125 -26.982,13.941l-52.609,28.822l-7.438,4.037c-0.603,0.332 -1.803,1.016 -3.606,2.044c-1.2,-5.284 -3.94,-11.634 -8.219,-19.047c-2.481,-4.29 -4.134,-7.312 -4.959,-9.078c8.334,-5.915 14.306,-10.797 17.913,-14.634c3.606,-3.841 5.409,-7.238 5.409,-10.2c0,-4.585 -3.044,-6.878 -9.128,-6.878c-6.16,0 -12.206,2.909 -18.138,8.725ZM92.587,52.913c0,-3.954 1.054,-7.338 3.154,-10.147c2.103,-2.81 4.656,-4.213 7.659,-4.213c3.981,0 5.972,1.278 5.972,3.838c0,2.428 -1.372,5.434 -4.113,9.025c-2.74,3.593 -6.362,7.115 -10.868,10.572c-1.204,-3.491 -1.804,-6.516 -1.804,-9.075Z" style="fill:url(#_Linear1);fill-rule:nonzero;"/><defs><linearGradient id="_Linear1" x1="0" y1="0" x2="1" y2="0" gradientUnits="userSpaceOnUse" gradientTransform="matrix(241.63,0,0,241.63,0.000577813,69.119)"><stop offset="0%" style="stop-color:#721658;stop-opacity:1"/><stop offset="100%" style="stop-color:#07006c;stop-opacity:1"/></linearGradient></defs></svg>