<svg viewBox="0 0 242 138" xmlns="http://www.w3.org/2000/svg" fill-rule="evenodd" clip-rule="evenodd" stroke-linejoin="round" stroke-miterlimit="1.414"><path d="M195.046 49.076c.103.04.203.087.297.14.2.12.375.275.538.45.176.12.347.235.516.36.263.14.47.334.638.565V20.127H168.25v1.987h26.796v26.963zM196.792 86.288c-.03.034-.065.065-.097.097-.043.115-.093.225-.153.325-.315.54-.772.834-1.315 1.065.106-.043.21-.087.312-.13-.163.074-.33.143-.495.215v27.156h-26.797v1.987h28.785v-31c-.078.097-.156.194-.24.285" fill="#aa3083" fill-rule="nonzero"/><path d="M195.126 49.243l19.24 19.24L195.052 87.8c0 .91.007 2.04 0 2.81l22.126-22.126-22.05-22.356v3.115zM148.59 0l-19.253 18.99v3.06h.012l19.24-19.24 19.315 19.315c.91 0 2.04-.006 2.81 0L148.59 0zM148.963 137.14l-19.254-18.99v-3.06h.012l19.24 19.242 19.316-19.316c.91 0 2.04.006 2.81 0l-22.125 22.125z" fill="#000f8e" fill-rule="nonzero"/><path d="M91.234 42.09c-5.934 5.82-8.9 11.735-8.9 17.754 0 2.425.713 5.434 2.14 9.028C68.555 78.81 51.863 86.347 34.4 91.484c-9.844 2.897-19.778 4.963-29.8 6.225-1.272 1.762-2.834 3.324-4.6 4.67 9.847-1.405 19.83-3.596 29.95-6.583 19.153-5.65 37.666-13.778 55.537-24.385.304.666.49 1.032.566 1.097l3.49 6.734c3.904 7.644 5.86 13.31 5.86 17.003 0 2.228-1.312 4.47-3.944 6.73l2.818.898 2.478-1.394 25.01-13.664 24.556-13.513c6.912-3.79 12.016-6.615 15.325-8.478l4.053-2.244c-4.206 7.68-7.903 15.57-11.097 23.664-3.19 8.093-4.787 13.637-4.787 16.63 4.806-.965 10.365-1.977 16.67-3.043 8.264-1.396 14.045-2.392 17.355-2.99l-2.027-1.546c-4.585.93-8.076 1.394-10.482 1.394-3.452 0-5.18-.844-5.18-2.54 0-2.13 1.728-7.382 5.18-15.76 3.454-8.375 6.348-14.31 8.68-17.8 4.052-6.085 9.78-10.972 17.177-14.663 7.397-3.688 15.19-5.534 23.38-5.534 6.23 0 9.345.863 9.345 2.594 0 .566-.262 1.263-.787 2.094l-.562.947 4.168.3 8.9-13.116c-8.264 0-16.558 1.03-24.896 3.093-6.31 1.563-12.225 3.58-17.743 6.056-5.52 2.478-14.515 7.124-26.98 13.94L119.4 87.122l-7.438 4.037c-.603.33-1.803 1.015-3.606 2.043-1.2-5.284-3.94-11.634-8.22-19.047-2.48-4.29-4.133-7.312-4.958-9.078 8.334-5.915 14.306-10.797 17.913-14.634 3.607-3.84 5.41-7.238 5.41-10.2 0-4.585-3.044-6.878-9.128-6.878-6.16 0-12.206 2.91-18.138 8.725zm1.353 10.823c0-3.954 1.054-7.338 3.154-10.147 2.104-2.81 4.657-4.213 7.66-4.213 3.98 0 5.972 1.278 5.972 3.838 0 2.43-1.372 5.435-4.113 9.026-2.74 3.593-6.363 7.115-10.87 10.572-1.203-3.49-1.803-6.516-1.803-9.075z" fill="url(#a)" fill-rule="nonzero"/><defs><linearGradient id="a" x2="1" gradientUnits="userSpaceOnUse" gradientTransform="translate(0 69.12) scale(241.63)"><stop offset="0%" stop-color="#721658"/><stop offset="100%" stop-color="#07006c"/></linearGradient></defs></svg>
